<svg xmlns="http://www.w3.org/2000/svg" viewBox="0 0 279 224"><g fill="none" fill-rule="evenodd"><path d="M0 0h279v224H0z"/><g fill-rule="nonzero"><path fill="#FFF" d="M251.76 33.21c4.59.02 8.29 3.78 8.23 8.37l-.44 140.47a8.454 8.454 0 0 1-8.38 8.37c-30.01.27-113.37-.46-153.8.85-3.91.12-55.15.46-69.48-.29a9.195 9.195 0 0 1-8.7-9.07c-.33-27.78-.11-140.55-.11-140.55a9.215 9.215 0 0 1 9.15-8.81s203.39.54 223.53.66m-.11 32.38c2.09-4.03 1.14-10.06 1.06-14.59-.03-1.64-.2-3.54-1.57-4.43-.68-.44-3.97-.4-4.78-.48-2.96-.29-9.83-.21-12.03.42-2.47.71-4.51 2.4-6.53 3.97-6.02 4.69-14.15 8.64-20.23 13.07-4.95 3.62-3.32 16.71-3.32 16.71s.18 5.6.69 6.83c.96 2.33 18.83.66 20.45.06 1.5-.55 2.78-1.55 4.03-2.53 4.13-3.25 8.03-6.69 12.16-9.93 3.07-2.41 8.27-5.64 10.07-9.1M115.12 173.23h.02l-.02-.02-.17-18.39-.78-84.65-78.32-.6.81 92.62.1 11.35 9.58-.04 59-.23c4.34-.02 7.57-.03 9-.04z"/><path fill="#FFF" d="M252.71 51c.08 4.53 1.03 10.56-1.06 14.59-1.8 3.46-7 6.69-10.07 9.1-4.13 3.24-8.03 6.68-12.16 9.93-1.25.98-2.53 1.98-4.03 2.53-1.62.6-19.49 2.27-20.45-.06-.51-1.23-.69-6.83-.69-6.83s-1.63-13.09 3.32-16.71c6.08-4.43 14.21-8.38 20.23-13.07 2.02-1.57 4.06-3.26 6.53-3.97 2.2-.63 9.07-.71 12.03-.42.81.08 4.1.04 4.78.48 1.37.89 1.54 2.79 1.57 4.43M115.14 173.23h-.02v-.02zm-.19-18.41.17 18.39c-5.34-4.9-14.21-9.52-20.15-13.87 6.13 2.12 14.71-.63 17.71-4.39a.16.16 0 0 0 .04-.11zm-9.61 18.45 9-.04c-1.43.01-4.66.02-9 .04"/><path fill="#000" d="M112.72 154.84s-.02.09-.04.11c-3 3.76-11.58 6.51-17.71 4.39-1.91-.67-3.59-1.81-4.78-3.54-1.15-4.09-.93-8.92.31-12.99.03-.04.06-.09.09-.13.07-.09.13-.19.19-.28a43 43 0 0 0 3.04-5.34l.06-.12c1.88-4.6 1.7-8.91 2.47-13.82.64-4.07 1.66-8.02-.26-11.91-3.96-8.06-13.9-4.73-20.58-13.4-2.63-3.42-4.5-5.82-4.48-8.03 0 0-7.92 6.27-10.43 11.51-4.14 8.64-4.48 16.23-2.86 25.65.88 5.1 2.91 10.07 3.76 15.18v.02c.03.1.04.2.05.32.13.81.23 1.63.29 2.44v.14c.08 1.23.07 2.47-.06 3.72-.03.24-.06.49-.1.73-.04.25-.08.49-.14.73-.03.15-.06.29-.1.44-.02.09-.04.18-.07.28-.02.1-.04.16-.04.16-.32 1.14-.78 2.26-1.35 3.32-.12.22-.25.44-.38.66-.25.43-.53.85-.84 1.27-.15.2-.3.41-.46.61-.01.03-.03.06-.07.09h-.02c-1.39 1.87-3.28 3.27-5.21 4.52 0 .01 0 .01-.02.02v.01s-.03.01-.04.01c-3.46 2.13-12.54 3.62-15.43.57 0-.23 3-3.68 4.72-6.94 1.55-2.94 1.04-5.17.06-9.11-1.68-7.85-2.48-15.94-1.99-23.96-.15-15.64 5.95-41.38 28.08-42.87 6.65-2.03 15.08-1.03 21.33 2.47 23.01 12.69 18.82 33.17 17.4 54.2-.03 3.46 1.41 10.91 2.77 14.08.48 1.11 2.84 4.12 2.84 4.79"/><path fill="#FFF" d="M96.09 111.21c1.92 3.89.9 7.84.26 11.91-.77 4.91-.59 9.22-2.47 13.82l-.06.12a42 42 0 0 1-3.04 5.34c-.06.09-.12.19-.19.28-.03.04-.06.09-.09.13-.31.47-.64.93-.99 1.4-7.69 10.42-19.04 9.25-26.78-.41-.43-.53-.84-1.09-1.23-1.66v-.02c-.85-5.11-2.88-10.08-3.76-15.18-1.62-9.42-1.28-17.01 2.86-25.65 2.51-5.24 10.43-11.51 10.43-11.51-.02 2.21 1.85 4.61 4.48 8.03 6.68 8.67 16.62 5.34 20.58 13.4"/><path fill="#FFF" d="M62.73 143.8c7.74 9.66 19.09 10.83 26.78.41.35-.47.68-.93.99-1.4-1.24 4.07-1.46 8.9-.31 12.99h-.02c.93 2.89-.27 5.76-3.05 7.5-4.53 3.59-10.66 4.13-16.21 3.21-4.77-.76-9.09-3.93-11.99-7.44-.37-.58-.69-1.3-.68-2.01 0 0 .06-.07.07-.1.16-.2.31-.41.46-.61.31-.42.59-.84.84-1.27.13-.22.26-.44.38-.66.57-1.06 1.03-2.18 1.35-3.32 0 0 .02-.06.04-.16.03-.1.05-.19.07-.28.04-.15.07-.29.1-.44.06-.24.1-.48.14-.73.04-.24.07-.49.1-.73.13-1.25.14-2.49.06-3.72v-.14c-.06-.81-.16-1.63-.29-2.44 0-.12-.02-.22-.05-.32.39.57.8 1.13 1.23 1.66z"/><path fill="#E60000" d="M90.19 155.8c1.19 1.73 2.87 2.87 4.78 3.54 5.94 4.35 14.81 8.97 20.15 13.87v.02h-.78l-9 .04-59 .23c-2.27.01-3.64.01-3.79.01 2-5 6-8.96 10.39-11.9.01 0 .03 0 .04-.01v-.01s.02-.01.02-.02c1.93-1.25 3.82-2.65 5.21-4.51h.02c0 .71.31 1.43.68 2.01 2.9 3.51 7.22 6.68 11.99 7.44 5.55.92 11.68.38 16.21-3.21 2.78-1.74 3.98-4.61 3.05-7.49h.02z"/><path fill="#FFF" d="M52.94 161.61c-4.39 2.94-8.39 6.9-10.39 11.9.15 0 1.52 0 3.79-.01l-9.58.04-.1-11.35h.85c2.89 3.04 11.97 1.55 15.43-.58"/><path fill="#FFF" d="M42.23 155.24c-1.72 3.26-4.72 6.71-4.72 6.94h-.85l-.81-92.61 78.32.6.78 84.65-2.23.02c0-.67-2.36-3.68-2.84-4.79-1.36-3.17-2.8-10.62-2.77-14.08 1.42-21.03 5.61-41.51-17.4-54.2-6.25-3.5-14.68-4.5-21.33-2.47-22.13 1.49-28.23 27.23-28.08 42.87-.49 8.02.31 16.11 1.99 23.96.98 3.94 1.49 6.17-.06 9.11"/><g fill="#000"><path d="M64.8 191.94c-14.59 0-30.03-.1-36.94-.47-5.08-.27-9.11-4.47-9.17-9.56-.33-27.47-.11-139.43-.11-140.56.23-5.2 4.47-9.28 9.65-9.31 2.04 0 203.62.54 223.54.66 2.35 0 4.56.94 6.21 2.62a8.7 8.7 0 0 1 2.51 6.25l-.44 140.46c-.05 4.85-4.03 8.83-8.88 8.87-9.63.09-24.72.07-42.19.05-37.49-.04-84.15-.09-111.6.8-1.63.05-16.6.17-32.58.17zM19.69 181.9c.06 4.56 3.67 8.33 8.23 8.58 14.45.76 66.33.38 69.44.29 27.47-.89 74.14-.84 111.64-.8 17.47.02 32.55.04 42.17-.05 4.3-.04 7.84-3.57 7.88-7.88l.44-140.47a7.65 7.65 0 0 0-2.23-5.54 7.7 7.7 0 0 0-5.51-2.32c-19.91-.12-221.5-.65-223.53-.66a8.717 8.717 0 0 0-8.65 8.33c0 1.11-.22 113.05.11 140.52z"/><path d="M75.55 167.4c-1.52 0-3.1-.13-4.72-.4-4.39-.7-8.87-3.47-12.29-7.61-.39-.6-.81-1.45-.79-2.34 0-.27.23-.5.5-.5s.5.22.5.5c0 .66.32 1.31.6 1.75 3.23 3.9 7.49 6.55 11.65 7.21 3.68.61 10.62 1.02 15.82-3.11 2.65-1.66 3.74-4.31 2.89-6.95l-.03-.12.93-.36c.04.1.06.17.07.24.98 3.02-.27 6.12-3.28 8-3.05 2.42-7.16 3.68-11.84 3.68zm39.59 6.33c-.15 0-.3-.07-.39-.18-3.25-2.97-7.81-5.85-12.23-8.63-2.85-1.79-5.54-3.49-7.85-5.18a.507.507 0 0 1-.11-.7c.16-.22.48-.27.7-.11 2.28 1.67 4.96 3.36 7.79 5.14 4.47 2.82 9.09 5.73 12.4 8.76.15.14.21.37.14.56s-.25.33-.46.33z"/><path d="M105.34 173.77c-.28 0-.5-.22-.5-.5s.22-.5.5-.5l4.55-.02c2.04 0 3.58-.01 4.44-.02.27 0 .5.22.5.5s-.22.5-.5.5c-.87 0-2.4.01-4.45.02l-4.55.02zm-62.79.24c-.17 0-.32-.08-.41-.22a.52.52 0 0 1-.05-.47c1.8-4.51 5.46-8.71 10.58-12.13a.49.49 0 0 1 .69.14c.15.23.09.54-.14.69-4.68 3.14-8.1 6.92-9.91 10.98h3.03c.28 0 .5.22.5.5s-.22.5-.5.5h-3.79zm34.15-21.96c-5.16 0-10.25-2.81-14.35-7.93-.41-.5-.83-1.07-1.25-1.69a.6.6 0 0 1-.09-.26c-.43-2.55-1.17-5.12-1.88-7.6-.71-2.46-1.44-4.99-1.87-7.54-1.79-10.4-.95-17.92 2.9-25.95 2.53-5.28 10.24-11.43 10.57-11.69a.51.51 0 0 1 .53-.06.5.5 0 0 1 .28.45c-.02 2.01 1.78 4.34 4.26 7.57l.11.15c3.21 4.17 7.14 5.46 10.95 6.72 3.9 1.29 7.59 2.5 9.69 6.77 1.76 3.57 1.14 7.22.55 10.75-.08.48-.16.97-.24 1.46-.23 1.48-.38 2.92-.52 4.32-.33 3.26-.65 6.35-1.98 9.62l-.08.15c-.39.83-.83 1.68-1.3 2.51-.56 1-1.16 1.97-1.77 2.88-.1.15-.15.23-.21.31l-.08.12c-.3.46-.63.92-.99 1.4-3.57 4.83-8.04 7.44-12.93 7.54zm-14.72-10.09c.38.56.77 1.07 1.14 1.53 3.99 4.97 8.91 7.67 13.84 7.56 4.57-.09 8.77-2.56 12.15-7.13.35-.46.67-.92.98-1.38l.11-.15c.05-.06.08-.12.12-.17l.06-.08c.6-.9 1.18-1.84 1.73-2.82.46-.81.88-1.64 1.27-2.46l.06-.13c1.26-3.1 1.57-6.11 1.9-9.3.14-1.41.29-2.86.53-4.37l.24-1.47c.6-3.53 1.16-6.87-.46-10.14-1.91-3.89-5.24-4.99-9.1-6.26-3.76-1.24-8.03-2.65-11.43-7.06l-.11-.14c-2.25-2.92-3.96-5.15-4.38-7.21-1.99 1.67-7.58 6.58-9.58 10.75-3.75 7.83-4.57 15.17-2.82 25.35.43 2.49 1.15 5 1.85 7.43.72 2.5 1.46 5.08 1.9 7.67zm149.65-53.17c-6.53 0-6.97-1.07-7.15-1.51-.52-1.26-.7-6.3-.73-6.98-.1-.81-1.55-13.44 3.52-17.15 2.82-2.05 6.12-4.04 9.33-5.95 3.77-2.26 7.67-4.59 10.89-7.11l.45-.35c1.9-1.49 3.87-3.02 6.25-3.71 2.27-.65 9.22-.73 12.22-.44.21.02.58.03 1.03.05 1.9.06 3.4.14 3.97.51 1.52.99 1.76 2.91 1.8 4.84.02.95.07 1.97.13 3.03.22 3.98.46 8.5-1.25 11.8-1.47 2.82-5.1 5.48-8.01 7.62-.79.58-1.54 1.13-2.19 1.64-2.09 1.64-4.15 3.36-6.15 5.02-1.95 1.62-3.97 3.3-6.01 4.91-1.27 1-2.59 2.03-4.17 2.61-.9.33-5.84.9-10.62 1.1-1.25.05-2.35.08-3.31.08zm30.44-42.36c-2.96 0-6.25.17-7.6.56-2.19.63-4.08 2.11-5.91 3.53l-.45.35c-3.27 2.55-7.2 4.9-10.99 7.18-3.18 1.91-6.47 3.88-9.25 5.9-4.66 3.4-3.13 16.12-3.12 16.24v.05c.07 2.21.3 5.81.65 6.65.66 1.6 17.32.71 19.81-.22 1.44-.53 2.69-1.51 3.9-2.46 2.03-1.6 4.04-3.27 5.99-4.89 2-1.67 4.07-3.39 6.17-5.04.66-.52 1.42-1.07 2.22-1.66 2.83-2.08 6.35-4.66 7.71-7.27 1.58-3.05 1.35-7.43 1.13-11.28-.06-1.07-.11-2.1-.13-3.07-.03-1.65-.21-3.29-1.34-4.02-.38-.25-2.54-.32-3.46-.35-.48-.02-.87-.03-1.09-.05-1.05-.1-2.6-.16-4.25-.16z"/><path d="M58.24 157.55a.5.5 0 0 1-.36-.85c.01-.02.02-.03.04-.05.11-.13.21-.27.31-.41l.14-.19c.31-.42.57-.82.81-1.22.13-.22.26-.43.37-.65.56-1.04 1-2.13 1.31-3.21 0-.03.02-.07.03-.12.04-.13.05-.21.07-.29.04-.16.07-.29.1-.43.06-.25.1-.48.14-.71l.09-.62c.13-1.26.15-2.45.07-3.72 0-.09-.01-.13-.01-.17-.06-.73-.15-1.54-.28-2.36a1 1 0 0 0-.04-.26c-.01-.05-.02-.09-.02-.14 0-.28.22-.51.5-.51.26 0 .47.18.5.43.03.12.04.24.05.36.13.81.23 1.65.29 2.44 0 .09.01.13.01.18.08 1.3.06 2.54-.06 3.77v.1c-.04.22-.07.44-.1.66-.04.26-.08.51-.15.77-.03.14-.06.29-.1.45-.02.08-.04.18-.07.29l-.04.18a17.2 17.2 0 0 1-1.38 3.4c-.12.23-.26.45-.39.68-.25.43-.54.86-.87 1.31l-.14.19c-.1.13-.19.26-.29.39-.05.08-.11.16-.2.22-.09.07-.2.1-.3.1z"/><path d="M43.31 164.42c-2.54 0-4.87-.53-6.17-1.9a.5.5 0 0 1-.14-.34c0-.24.1-.38.9-1.42 1.02-1.34 2.73-3.58 3.88-5.75 1.43-2.71 1.01-4.75.02-8.76-1.8-8.39-2.47-16.5-2-24.11-.04-4.52.43-16.28 5.74-26.93 5-10.05 12.87-15.72 22.75-16.4 6.77-2.04 15.26-1.06 21.67 2.53 21.09 11.63 19.64 29.62 18.11 48.66-.16 2-.32 4-.46 6.01-.03 3.41 1.43 10.81 2.73 13.85.19.44.75 1.28 1.3 2.09 1.1 1.64 1.58 2.42 1.58 2.9 0 .17-.07.34-.18.46-3.05 3.82-11.88 6.71-18.23 4.51-2.16-.76-3.85-2.01-5.03-3.73a.5.5 0 0 1-.07-.15c-1.12-3.99-1-8.95.31-13.27a.5.5 0 0 1 .62-.33.5.5 0 0 1 .33.62c-1.25 4.12-1.38 8.83-.33 12.63 1.06 1.51 2.57 2.61 4.49 3.28 5.92 2.05 14.1-.57 17.06-4.12-.15-.4-.89-1.5-1.39-2.25-.6-.89-1.16-1.73-1.38-2.25-1.37-3.2-2.84-10.67-2.81-14.28.14-2.05.3-4.06.46-6.06 1.5-18.71 2.92-36.38-17.6-47.7-6.2-3.47-14.41-4.42-20.94-2.43-.04.01-.07.02-.11.02-9.67.65-17.06 5.98-21.98 15.85-3.62 7.26-5.72 17.17-5.63 26.51-.46 7.56.21 15.58 1.98 23.86.94 3.78 1.56 6.28-.11 9.45-1.18 2.24-2.93 4.53-3.97 5.89-.2.26-.41.54-.55.73 3 2.51 11.42 1 14.53-.91.02 0 .03-.02.05-.03h.01c1.73-1.12 3.68-2.52 5.08-4.4.16-.22.48-.27.7-.1s.27.48.1.7c-1.48 1.99-3.5 3.44-5.29 4.6h-.01c-.05.05-.11.09-.17.11-2.08 1.25-6.17 2.35-9.83 2.35z"/><path d="M36.76 174.04c-.27 0-.5-.22-.5-.5l-.91-103.97c0-.13.05-.26.15-.36s.21-.13.36-.15l78.32.6c.27 0 .49.22.5.5l.95 103.04a.53.53 0 0 1-.5.53l-9.78.04-68.58.27zm-.41-103.97.9 102.96 77.08-.31h.28l-.94-102.06zm89.89 67.03c-.28 0-.5-.22-.5-.5s.22-.5.5-.5l117.29-.24c.28 0 .5.22.5.5s-.22.5-.5.5zm.1-14.63c-.28 0-.5-.22-.5-.5s.22-.5.5-.5c39.09-.07 78.19-.15 117.29-.23.28 0 .5.22.5.5s-.22.5-.5.5c-39.1.08-78.2.16-117.29.23m87.52 28.32c-11.17 0-22.21-.13-33.07-.27-17.61-.21-35.82-.43-54.18-.08-.27 0-.49-.22-.5-.49 0-.28.21-.5.49-.51 18.37-.35 36.59-.13 54.21.08 20.76.25 42.22.51 63.84-.17.31 0 .51.21.52.48 0 .28-.21.51-.48.52-10.33.33-20.62.44-30.82.44z"/></g></g></g></svg>