<svg xmlns="http://www.w3.org/2000/svg" viewBox="0 0 279 224"><g fill="none" fill-rule="evenodd"><path d="M0 0h279v224H0z"/><g fill-rule="nonzero"><path fill="#5A5D5C" d="M234.793 42.259c1.942.229 2.758 1.115 3.077 2.768l-.02.03c.358 1.474-.26 3.127-.18 3.127-.248.587-.567 2.848-1.095 4.93-.199 1.413-.776 3.763-1.264 6.312-.558 2.868-1.335 5.607-2.082 9.201-.627 3.277-1.115 5.079-1.553 8.684-.568 3.843-1.374 6.691-1.912 10.565-.587 3.396-1.115 6.572-1.514 9.32-.398 2.759-.677 5.089-.796 6.792-.37 5.733.802 9.971 2.016 14.165l.404 1.398a77 77 0 0 1 .886 3.317c.727 3.027 1.464 5.925.936 10.286-1.534 12.985-11.96 16.84-16.46 17.357-.517.059-1.733.089-3.485.093h-1.058c-5.015-.012-13.372-.186-22.313-.46l-.996-.03-.499-.016-1.001-.032-1.507-.049-1.007-.034c-7.568-.259-15.205-.577-21.28-.926-.567-3.266-1.105-6.413-1.623-9.45 6.045.667 16.281 1.663 26.986 1.663 6.99 0 23.939 2.619 29.834-.279 5.875-2.897 6.184-13.622 4.262-24.426-1.932-10.795-1.285-12.209-.777-17.606l.004-.023c.037-.196.297-1.597.703-3.8.438-2.38 1.056-5.727 1.763-9.55.707-3.944 1.215-7.947 2.29-12.408.896-3.863 1.235-8.195 2.29-12.407.409-3.565 1.424-7.15 1.763-9.55.547-2.49.528-2.45.707-3.824.189-1.145-.08-1.404.816-3.256.448-1.125 1.604-2.37 3.685-1.882m-79.872 96.77q.112-.001.373.02l.231.02c.888.086 2.602.297 4.932.558.518 3.037 1.056 6.184 1.623 9.45-6.442-.358-11.142-.757-12.158-1.115-3.854-1.414-2.699-5.656-2.699-5.656.966-3.814 6.194-3.257 7.698-3.276z"/><path fill="#000" d="M216.68 222.865h-37.611v-.05c-1.006-.657-1.554-1.832-1.863-2.738l7.469-.05 5.994-.04 22.306-.15c1.484 0 3.694 1.554 3.694 3.038l.01-.01zm-22.665-72.245-.249 6.135H183.36l-.02-6.523z"/><path fill="#FFF" d="M191.566 156.755s-.01 1.284-.04 3.495c-.03 2.19.12 5.377-.13 8.962-.06 3.376-.189 7.946-.169 12.248-.368 4.63.24 8.464-.19 13.344.13 3.863-.218 8.175-.168 12.258-.04 3.624-.1 6.761-.13 8.952-.03 2.2-.05 3.475-.05 3.475v.498l-5.994.04v-.538s.01-1.274.03-3.465.507-5.049.1-8.932c.278-3.675.278-7.548.139-12.229-.2-4.81-.06-8.703.139-13.323.488-4.65-.677-8.893.14-12.209.06-3.714.08-6.761.099-8.952.02-2.18.03-3.455.03-3.455v-.15h6.204l-.01-.02z"/><path fill="#000" d="M179.069 222.805v.05h-19.817a2.69 2.69 0 0 1 2.699-2.689l15.265-.11c.3.907.847 2.082 1.862 2.74l-.01.01z"/><path fill="#FFF" d="M170.535 96.56c.488 0 .866.388.856.866l-.08 4.998s-2.36.03-6.512.1c-2.071.03-4.59.08-7.468.12-1.265.01-2.52.09-3.775.159-1.991.13-3.953.229-5.914-.01-3.745-.289-7.12-.08-11.462.17-4.372.238-8.683.149-12.796.198-4.6.498-19.109.14-23.76.2-29.734.458-57.406.965-70.989 1.214-5.576.11-8.773.17-8.773.17l-.16-6.144a.827.827 0 0 1 .817-.847s7.827-.02 19.946-.08c5.228-.03 11.282-.06 17.834-.109 2.958-.02 6.005-.05 9.142-.08 13.274-.11 28.11-.348 42.072-.448 4.62-.04 9.042-.308 13.552-.11 4.352-.268 8.345-.189 12.667-.109 3.814.19 7.867-.309 11.352-.09 3.515.349 6.85-.428 9.6-.08a2808 2808 0 0 0 7.388-.059l6.443-.05z"/><path fill="#E60000" d="m120.407 96.47-25.85.537s.567-1.941 1.005-2.599c.438-.647 1.274-2.629 6.034-2.698 2.26-.03 5.02.249 7.678.627s5.238.856 7.14 1.245c2.758.647 3.724 2.14 3.983 2.888z"/><path fill="#CCCABC" d="M90.513 4.539c-.448-1.126.1-2.4 1.215-2.848l2.948-.986c1.503-.608 3.226.12 3.823 1.623v.01l3.197 6.731.005.01.316-.013c5.66-.171 11.093 3.146 13.341 8.717 0 0-2.607.816-7.072 2.592l-.635.254a185 185 0 0 0-3.904 1.625 881 881 0 0 1-14.23 5.964c-.906-2.23-.736-5.048-.488-7.279.29-2.589 1.195-4.919 2.709-6.83v-.02c.418-.549.896-1.056 1.414-1.514l.837 2.559 8.952-3.436-.005-.009-8.947 3.435-.837-2.56z"/><path fill="#E60000" d="m74.023 54.666 6.224 33.499s-4.88-1.793-7.718-8.614c-.866-2.091-2.2-8.145-3.624-15.564-.558-2.878-1.116-5.975-1.683-9.121-.667-3.745-1.773-7.23-1.942-11.273-.408-3.883-1.135-7.1-1.683-10.266-.259-1.952-.468-3.794-.717-5.358a22 22 0 0 0-.488-2.41c-.388-2-.318-2.907-.528-3.724.13-.717-.527-2.1-.358-3.903.08-1.812-.398-3.734.498-6.054.528-1.922 1.533-3.506 3.326-4.063 0 0 .179.986.518 2.758.667 1.713.398 4.53 1.364 7.379.667 2.908 1.175 6.472 1.991 10.685.907 3.853 1.484 8.215 2.35 12.676l2.47 13.344z"/><g fill="#000"><path d="M47.515 223.97c-1.065 0-2.13-.07-3.226-.15-1.225-.079-2.5-.169-3.794-.139-2.808-.269-5.547-.149-7.757-.05l-1.046.05H14.584v-.995l18.114-.04c2.23-.1 5.019-.23 7.837.05 1.284-.03 2.579.06 3.824.139 2.15.15 4.172.279 6.273-.14h.12c3.017.14 7.448.26 11.431 0 4.003.04 7.757.08 12.557 0 2.718-.149 5.656-.1 8.773-.05 1.543.03 3.097.05 4.64.05h25.353c3.425-.328 6.692-.209 10.147-.09.986.03 1.992.07 3.007.09 2.808-.169 8.325-.388 13.284 0 2.47.14 4.62.07 6.692 0 2.15-.07 4.182-.139 6.562 0h76.198c3.385.03 4.76.04 8.623-.02a89 89 0 0 0 1.992-.119c2.698-.17 5.487-.348 7.558.15 1.523.06 3.794.06 6.662-.01.746-.02 1.364-.05 1.892-.08 1.204-.07 2.07-.12 3.276.09 1.563.109 3.913.02 4.112 0l.08.995c-.22.04-2.699.12-4.312 0-1.135-.199-1.912-.15-3.097-.08-.537.03-1.165.07-1.922.09-2.887.07-5.178.07-6.82 0-2.012-.478-4.85-.299-7.36-.14-.697.04-1.374.09-2.021.12-3.894.06-5.268.05-8.663.02h-76.228c-2.36-.15-4.371-.08-6.492 0-2.092.07-4.262.15-6.792 0-4.909-.378-10.376-.17-13.194 0-1.055-.02-2.061-.06-3.057-.09-3.425-.119-6.652-.228-10.067.09H88.173c-1.553 0-3.107-.02-4.66-.05-3.097-.05-6.015-.1-8.723.05-4.84.08-8.594.04-12.567 0-3.963.27-8.404.15-11.452 0-1.105.21-2.18.289-3.256.289zm21.39-198.44-.25-.379h-.557q0-.368 2.031-1.304a121 121 0 0 0 4.521-2.151l16.87-8.056.428.896-16.868 8.056c-1.683.847-3.336 1.603-4.551 2.161-.777.358-1.514.697-1.643.777zM39.977 97.097s-.02-1.175-.06-3.167l-.05-2.51c-.03-1.632-.07-3.544-.119-5.665 0-1.364-.06-2.778-.11-4.272-.08-2.2-.169-4.471-.109-6.93-.19-1.713-.15-3.576-.1-5.537.05-2.121.1-4.322-.149-6.572-.03-1.484-.12-2.938-.2-4.342-.158-2.55-.308-4.96-.029-6.9-.13-1.853-.12-3.516-.11-4.99 0-1.215.01-2.26-.06-3.137-.04-2.03-.069-3.196-.069-3.196-.01-.438.22-.657.368-.807.11-.1.2-.189.28-.398l.069-.17.17-.079c.159-.08.388-.17.676-.289.727-.288 1.823-.717 3.057-1.483l.09-.05c1.026-.369 2.22-.996 3.485-1.653 1.235-.637 2.5-1.305 3.814-1.852 2.639-1.524 5.019-2.55 6.762-3.296.806-.349 1.503-.648 2.06-.926.877-.439 1.574-.668 2.082-.837.259-.08.548-.18.617-.229-.03.02-.08.1-.08.2l.987-.06c.01.647-.528.816-1.205 1.045-.478.16-1.145.378-1.952.777-.578.289-1.285.587-2.121.946-1.812.776-4.073 1.752-6.722 3.266-1.334.558-2.589 1.205-3.794 1.842-1.274.667-2.48 1.295-3.564 1.693-1.295.807-2.43 1.245-3.177 1.543q-.27.105-.448.18c-.15.279-.309.438-.418.547-.03.03-.06.05-.08.08l.08 3.157c.07.896.07 1.961.06 3.196 0 1.474-.02 3.137.109 4.97v.109c-.269 1.852-.13 4.232.03 6.751.09 1.414.179 2.878.199 4.342.249 2.27.2 4.5.16 6.662-.04 1.931-.09 3.754.099 5.476-.05 2.49.04 4.75.12 6.931.06 1.504.109 2.928.109 4.302.05 2.11.09 4.033.12 5.666l.05 2.5c.039 2 .059 3.166.059 3.166l-.996.02z"/><path d="m80.884 88.941-.817-.298c-.209-.08-5.118-1.952-7.996-8.893-.806-1.941-2.031-7.21-3.644-15.663a726 726 0 0 1-1.633-8.853l-.05-.279c-.21-1.195-.478-2.38-.727-3.535-.548-2.47-1.105-5.019-1.225-7.797-.289-2.748-.747-5.168-1.185-7.518-.17-.906-.338-1.802-.488-2.689l-.219-1.712c-.17-1.315-.329-2.55-.498-3.655a24 24 0 0 0-.468-2.36c-.229-1.165-.299-1.942-.368-2.57-.05-.467-.08-.836-.17-1.164l-.03-.1.02-.11c.04-.208-.04-.617-.129-1.045-.14-.717-.339-1.693-.229-2.808.02-.468 0-.976-.03-1.504-.06-1.374-.13-2.927.548-4.69.637-2.32 1.862-3.804 3.644-4.361l.538-.17.618 3.316c.308.757.418 1.803.547 3.008.14 1.324.299 2.828.807 4.311.398 1.753.727 3.625 1.105 5.796.269 1.533.558 3.186.896 4.959.538 2.3.966 4.78 1.404 7.389.3 1.722.598 3.495.946 5.277l8.853 47.708zM63.358 27.9c.18 1.115.339 2.36.508 3.684l.22 1.693c.148.866.318 1.753.487 2.659.448 2.36.906 4.8 1.205 7.627.12 2.729.667 5.238 1.205 7.658.259 1.165.518 2.36.737 3.575l.05.279a721 721 0 0 0 1.633 8.832c1.583 8.265 2.818 13.613 3.594 15.465 2.012 4.84 5.099 7.08 6.583 7.916l-8.505-45.866c-.348-1.782-.647-3.564-.946-5.297-.448-2.6-.866-5.059-1.404-7.349a253 253 0 0 1-.906-4.989c-.378-2.16-.697-4.023-1.085-5.696-.528-1.543-.687-3.097-.837-4.47-.12-1.136-.219-2.112-.507-2.839l-.429-2.26c-1.155.567-1.991 1.742-2.47 3.505-.617 1.613-.557 2.997-.497 4.332.02.557.05 1.075.02 1.613-.1.995.08 1.862.209 2.549.1.518.19.936.15 1.304.079.369.119.747.169 1.215.06.608.13 1.355.338 2.44.17.647.339 1.474.488 2.42z"/><path d="M57.941 97.694c-1.424-1.483-1.185-3.336-.986-4.82l.05-.378c.09-.418.15-.806.22-1.214.188-1.116.417-2.39.945-3.974.717-2.23.946-3.077 1.484-5.148l.418-1.573c.876-4.183 2.002-8.514 2.997-12.199l.25-.707c.716-1.981 1.393-3.863 2.807-4.371 1.225-.438 2.49-.289 3.057.368l-.746.658c-.21-.24-.986-.439-1.972-.08-.976.348-1.573 2.011-2.21 3.774l-.24.667c-.976 3.625-2.1 7.936-2.977 12.119l-.418 1.603c-.528 2.021-.777 2.948-1.504 5.208-.508 1.514-.727 2.738-.916 3.824-.07.418-.14.816-.22 1.205l-.039.338c-.19 1.404-.378 2.868.717 4.003l-.717.687zM29.87 222.915l-.03-1.723c0-.259-.02-.558-.03-.896-.04-.996-.1-2.35-.03-3.954-.11-.856-.1-1.842-.08-2.887 0-.558.02-1.146 0-1.753-.02-1.633.11-3.346.24-5.158.159-2.131.318-4.342.288-6.781-.04-3.067-.249-6.324-.478-9.77-.288-4.4-.577-8.941-.557-13.572.14-4.431-.08-8.504-.319-12.825-.21-3.894-.428-7.917-.358-12.229-.06-4.321-.04-8.563-.02-12.656.02-3.714.04-7.22 0-10.486l-.349-23.42h.996l.348 23.4c.05 3.276.03 6.792 0 10.506-.02 4.093-.05 8.325.02 12.656-.07 4.292.15 8.305.359 12.179.239 4.341.458 8.434.318 12.895-.02 4.58.27 9.112.558 13.493.23 3.456.438 6.732.478 9.819.03 2.49-.13 4.71-.289 6.87-.13 1.793-.259 3.486-.239 5.07.01.616 0 1.214 0 1.782-.02 1.015-.03 1.961.08 2.838-.07 1.643 0 2.977.03 3.953q.03.522.03.926l.03 1.723-.996.02zm181.372-71.797c-6.074 0-17.515-.269-27.901-.617-8.027-.269-15.595-.598-21.29-.926-4.9-.269-11.024-.687-12.298-1.145-3.396-1.245-3.456-4.64-3.008-6.264.956-3.784 5.617-3.694 7.608-3.644h.568c.318 0 1.235.1 3.266.338l2.33.27c10.157 1.114 18.97 1.662 26.926 1.662 2.012 0 4.76.21 7.956.448 7.827.598 17.566 1.334 21.659-.677 4.82-2.38 6.273-11.083 3.993-23.889-1.683-9.4-1.424-11.79-.986-15.743.07-.618.14-1.275.21-2.002l2.479-13.413c.209-1.185.408-2.38.607-3.595.458-2.808.936-5.706 1.683-8.833.408-1.752.697-3.594.996-5.536.348-2.25.717-4.58 1.294-6.871.23-2.041.678-4.152 1.076-6.015.279-1.284.538-2.499.667-3.485.518-2.34.528-2.46.677-3.565l.03-.259c.05-.318.07-.547.09-.766.05-.648.09-1.215.776-2.64.548-1.373 1.962-2.688 4.252-2.15 2.002.229 3.077 1.205 3.446 3.166.239.996.07 2.072-.07 2.719h.14l-.29.687c-.109.259-.268 1.056-.427 1.892a70 70 0 0 1-.638 2.967c-.11.787-.358 1.932-.637 3.257-.2.936-.418 1.971-.627 3.037-.29 1.504-.648 2.967-1.016 4.53a154 154 0 0 0-1.066 4.69c-.179.947-.348 1.783-.507 2.57-.389 1.902-.727 3.545-1.036 6.074-.279 1.872-.608 3.505-.936 5.099-.349 1.703-.707 3.475-.986 5.477a335 335 0 0 0-1.514 9.33c-.408 2.868-.677 5.138-.786 6.752-.369 5.805.886 10.157 2.1 14.359.41 1.414.837 2.878 1.196 4.371l.04.17c.737 3.047 1.434 5.924.906 10.296-1.504 12.686-11.322 17.157-16.899 17.795-.597.07-2.021.1-4.043.1zm-57.715-11.61c-2.042 0-5.149.268-5.816 2.917-.04.16-.986 3.834 2.39 5.069.418.15 2.44.557 12.02 1.085 5.695.319 13.243.647 21.27.926 15.484.528 29.743.767 31.795.528.577-.07 14.23-1.802 16.012-16.918.508-4.193-.17-6.98-.886-9.938l-.04-.17c-.349-1.483-.777-2.927-1.175-4.331-1.245-4.282-2.53-8.714-2.141-14.698.11-1.643.378-3.944.797-6.831.358-2.47.856-5.527 1.513-9.34.279-2.022.638-3.805.986-5.527.319-1.574.647-3.207.916-5.04.309-2.558.657-4.221 1.046-6.143.16-.787.328-1.613.508-2.56.368-1.742.727-3.255 1.075-4.72.368-1.543.717-3.007 1.006-4.48.209-1.076.428-2.101.627-3.047.279-1.305.518-2.43.637-3.237.26-1.045.458-2.071.638-2.967.179-.916.318-1.603.448-1.982 0-.09.03-.189.06-.299.11-.487.378-1.623.139-2.618-.299-1.564-1.006-2.201-2.649-2.39-2.1-.498-2.907.936-3.166 1.573-.618 1.285-.648 1.733-.697 2.31-.02.25-.04.508-.09.847l-.03.239c-.15 1.145-.17 1.264-.687 3.604-.13.976-.398 2.211-.677 3.516-.398 1.842-.837 3.923-1.076 5.984-.577 2.32-.936 4.62-1.284 6.851-.309 1.962-.598 3.814-1.016 5.606-.747 3.097-1.215 5.985-1.673 8.773-.199 1.215-.398 2.42-.607 3.615l-2.47 13.373c-.06.688-.14 1.345-.209 1.972-.428 3.864-.677 6.194.976 15.455 1.384 7.797 2.649 21.42-4.53 24.964-4.333 2.131-14.22 1.384-22.177.777-3.167-.24-5.905-.448-7.877-.448-7.996 0-16.838-.548-27.035-1.663l-2.33-.27c-1.604-.188-2.858-.338-3.137-.328h-.608c-.239 0-.507-.01-.806-.01l.03-.03zm31.646 79.972h-.996l.03-3.476c0-.667.06-1.404.11-2.21.119-1.783.268-4.004-.01-6.673.248-3.415.288-7.05.139-12.258-.21-4.81-.06-8.733.14-13.353.218-2.151.099-4.173-.03-6.124-.14-2.211-.27-4.302.169-6.134.05-2.719.07-5.079.08-7l.05-5.348h.995l-.05 5.357a537 537 0 0 1-.08 7.06v.11c-.428 1.703-.308 3.734-.169 5.885.13 1.992.26 4.053.03 6.254-.2 4.57-.339 8.464-.14 13.243.16 5.248.12 8.923-.139 12.279.289 2.668.14 4.929.01 6.751-.05.787-.1 1.504-.11 2.15l-.03 3.466v.02zm5.994.01-.995-.02.08-5.438c.03-1.952.069-4.341.099-6.99-.02-1.842.04-3.774.1-5.626.07-2.32.139-4.501.07-6.603.218-2.559.168-4.81.119-6.99-.05-2.041-.1-4.142.08-6.403-.02-3.356.059-6.85.119-9.928l.05-2.28c.169-2.5.149-4.83.129-6.702 0-.836-.01-1.593 0-2.25.03-2.201.04-3.476.04-3.476h.996s-.01 1.285-.04 3.496v2.23c.02 1.892.04 4.242-.14 6.752l-.05 2.26c-.07 3.077-.139 6.562-.119 9.948-.18 2.25-.13 4.242-.08 6.343.05 2.21.11 4.491-.119 7.04.07 2.072 0 4.382-.07 6.602-.06 1.853-.12 3.764-.1 5.597-.03 2.658-.069 5.048-.099 7l-.08 5.437h.01zM95.034 97.147l-.956-.28c.06-.208.608-2.04 1.076-2.738l.11-.169c.507-.806 1.692-2.688 6.332-2.748 1.992-.03 4.6.18 7.758.627 2.758.389 5.427.896 7.17 1.255 3.285.767 4.162 2.659 4.36 3.216l-.945.319c-.11-.309-.787-1.902-3.625-2.57-1.723-.348-4.371-.856-7.1-1.234-3.097-.438-5.656-.637-7.608-.617-4.102.06-5.048 1.563-5.506 2.28l-.13.2c-.328.477-.787 1.94-.946 2.459z"/><path d="m19.384 105.262-.17-6.642c0-.358.13-.707.38-.965a1.28 1.28 0 0 1 .935-.399s7.827-.02 19.946-.08l21.867-.139c1.673-.02 3.376-.03 5.099-.04 6.393-.05 13.154-.13 20.005-.219 7.37-.09 14.837-.179 22.077-.239 1.503-.01 2.997-.05 4.47-.09 3.118-.079 6.055-.159 9.112-.02 4.372-.268 8.395-.188 12.657-.109 1.872.1 3.814.02 5.686-.05 2.001-.08 3.893-.149 5.686-.03 1.762.17 3.465.06 5.108-.05 1.603-.109 3.127-.208 4.521-.02 2.788-.029 5.268-.049 7.319-.069l6.443-.05c.378 0 .727.15.976.409.259.259.388.607.379.975l-.08 5.477h-.489s-2.36.04-6.512.1l-7.468.12c-1.285.01-2.59.089-3.745.159-2.021.13-3.993.229-6.004-.01-3.545-.27-6.762-.09-10.844.14l-.538.029c-3.067.17-6.104.17-9.032.18-1.274 0-2.54 0-3.784.02-3.176.338-11.013.278-17.307.228-2.708-.02-5.038-.04-6.452-.02-29.127.448-55.804.936-70.134 1.195l-10.117.2.01.01zm100.077-7.896c-1.803 0-3.595.05-5.447.09-1.484.04-2.978.08-4.491.089-7.24.06-14.708.15-22.067.239-6.85.08-13.612.17-20.005.22-1.723.009-3.426.029-5.099.039l-21.877.14c-12.119.05-19.946.079-19.946.079-.09 0-.169.03-.229.1s-.1.149-.1.249l.15 5.646 9.131-.18c14.33-.259 41.017-.746 70.144-1.195 1.424-.02 3.764 0 6.482.02 5.935.05 14.07.12 17.237-.219 1.295-.02 2.56-.02 3.834-.03 2.928 0 5.945-.02 8.982-.179l.528-.03c4.112-.239 7.369-.418 10.993-.14 1.952.23 3.874.14 5.846.01 1.175-.069 2.5-.149 3.794-.158l7.458-.12c3.047-.05 5.138-.08 6.025-.09l.07-4.51c0-.1-.03-.19-.1-.26a.36.36 0 0 0-.26-.109l-6.442.05c-2.051.02-4.53.04-7.389.06-1.374-.17-2.838-.08-4.401.03-1.683.109-3.426.228-5.258.05-1.733-.11-3.595-.04-5.566.04-1.902.069-3.864.148-5.766.049-4.222-.08-8.215-.16-12.607.11a90 90 0 0 0-3.644-.08zM92.684 12.734l-2.639-8.026c-.537-1.345.13-2.908 1.504-3.466l2.967-.995a3.39 3.39 0 0 1 2.61.03 3.38 3.38 0 0 1 1.841 1.882l3.187 6.701-.896.428-3.197-6.731a2.46 2.46 0 0 0-1.314-1.364 2.44 2.44 0 0 0-1.872-.02l-2.968.996c-.836.338-1.254 1.324-.906 2.19l2.649 8.056-.946.309z"/><path d="m89.239 28.856-.19-.458c-.956-2.36-.776-5.268-.517-7.529.308-2.728 1.254-5.118 2.808-7.08a11 11 0 0 1 1.483-1.583c1.176-1.065 2.59-1.942 4.213-2.599a14.4 14.4 0 0 1 4.63-1.026c6.154-.338 11.84 3.287 14.15 9.012l.2.498-.518.16s-4.491 1.414-11.562 4.45c-7.11 3.058-14.17 5.936-14.24 5.965zm13.204-19.299c-.24 0-.488 0-.727.02-1.464.07-2.918.399-4.312.956-1.504.618-2.828 1.434-3.923 2.42-.508.448-.956.926-1.355 1.444-1.443 1.822-2.32 4.043-2.609 6.582-.229 1.992-.398 4.5.28 6.572a896 896 0 0 0 13.741-5.765c5.736-2.46 9.759-3.854 11.133-4.312a13.44 13.44 0 0 0-12.238-7.917zm114.734 213.308h-.995c0-1.155-1.962-2.54-3.197-2.54l-51.034.359a2.2 2.2 0 0 0-2.2 2.19h-.996a3.2 3.2 0 0 1 3.196-3.186l51.034-.358c1.753 0 4.192 1.782 4.192 3.535m-22.933-65.613h-11.381l-.02-7.01.995-.01.01 6.025h9.44l.23-5.656.995.04z"/><path d="M178.8 223.223c-.896-.577-1.594-1.593-2.062-2.997a10 10 0 0 1-.189-.607c-.04-.13-.07-.24-.1-.33-.06-.208-1.015-4.948-1.573-7.716a925 925 0 0 1-1.683-8.375c-.229-2.021-.776-4.5-1.414-7.379-.219-1.006-.458-2.061-.697-3.186-.368-1.833-1.444-5.945-2.579-10.307-1.205-4.64-2.45-9.43-2.897-11.64a888 888 0 0 1-4.023-21.53c-.568-3.266-1.106-6.412-1.624-9.46-1.443-8.533-2.798-16.6-4.321-24.247-.518-2.589-.966-4.84-1.345-6.711-.02-1.335-.249-1.902-.458-2.45a4.8 4.8 0 0 1-.328-1.085l-.1-.648c-.07-.478-.16-1.125-.219-1.264.03.07.16.219.369.219v-.488l-.339-.359.358-.149c.538 0 .608.438.817 1.892l.1.637c.05.319.149.578.268.867.23.567.508 1.284.528 2.718.369 1.773.817 4.033 1.335 6.622 1.533 7.668 2.887 15.734 4.331 24.277a2974 2974 0 0 0 1.623 9.45 893 893 0 0 0 4.013 21.5c.439 2.18 1.683 6.96 2.878 11.58 1.135 4.372 2.21 8.504 2.59 10.357.238 1.115.477 2.17.696 3.176.648 2.908 1.205 5.407 1.424 7.439a1306 1306 0 0 0 1.683 8.334c.996 4.98 1.504 7.459 1.554 7.628.03.08.06.2.1.329.049.17.109.358.178.577.399 1.185.956 2.022 1.653 2.48l-.537.836z"/></g></g></g></svg>