<svg xmlns="http://www.w3.org/2000/svg" fill="none" viewBox="0 0 12 12"><path fill="#1C1C1C" fill-rule="evenodd" d="M11.917 5A6.002 6.002 0 0 0 0 6a6 6 0 0 0 5 5.917v-1.269A7.5 7.5 0 0 1 3.75 8H5V7H3.562a8.3 8.3 0 0 1-.004-2zM1 6q0-.514.1-1h1.452a9.3 9.3 0 0 0 .003 2H1.1A5 5 0 0 1 1 6m1.715-2H1.416a5.02 5.02 0 0 1 2.216-2.405A8.7 8.7 0 0 0 2.715 4m1.028 0a7.5 7.5 0 0 1 1.46-2.937 5 5 0 0 1 1.593 0A7.5 7.5 0 0 1 8.257 4zm5.542 0a8.7 8.7 0 0 0-.917-2.405A5.02 5.02 0 0 1 10.584 4h-1.3ZM2.722 8a8.7 8.7 0 0 0 .934 2.417A5.02 5.02 0 0 1 1.416 8z" clip-rule="evenodd"/><path fill="#1C1C1C" fill-rule="evenodd" d="M12 9a3 3 0 1 1-6 0 3 3 0 0 1 6 0m-3.989 1.739A2 2 0 0 0 10.74 8.01zm2.032-3.446-2.75 2.75a2 2 0 0 1 2.75-2.75" clip-rule="evenodd"/></svg>