<svg xmlns="http://www.w3.org/2000/svg" viewBox="0 0 16 16"><path fill="#1C1C1C" d="M15 8a7 7 0 1 0-7 7 6.96 6.96 0 0 0 4.357-1.527l.015-.006.007-.01A6.98 6.98 0 0 0 15 8m-3.697 3.5L9.74 10.019l.571-1.756 2.333-1.292 1.35.922c.001.036.006.071.006.107a5.96 5.96 0 0 1-1.137 3.5zm1.609-6.935-.496 1.388-2.281 1.263L9 6.253V3.369l1.043-1.003a6 6 0 0 1 2.869 2.199m-6.8-2.256L8 3.527v2.421L5.942 7.254 3.579 5.939l-.491-1.374a6.02 6.02 0 0 1 3.024-2.256M2.005 7.893l1.359-.928L5.655 8.24l.016-.03.587 1.807L4.709 11.5H3.137A5.96 5.96 0 0 1 2 8c0-.036.005-.071.005-.107m4.045 5.775-.468-1.62 1.57-1.503h1.69l1.578 1.495-.47 1.627C9.338 13.88 8.683 14 8 14s-1.338-.12-1.95-.332"/></svg>